<svg xmlns="http://www.w3.org/2000/svg" xmlns:xlink="http://www.w3.org/1999/xlink" width="500" zoomAndPan="magnify" viewBox="0 0 375 149.999998" height="200" preserveAspectRatio="xMidYMid meet" version="1.0"><defs><g/></defs><rect x="-37.5" width="450" fill="#ffffff" y="-15" height="179.999997" fill-opacity="1"/><rect x="-37.5" width="450" fill="#ffffff" y="-15" height="179.999997" fill-opacity="1"/><rect x="-37.5" width="450" fill="#ffffff" y="-15" height="179.999997" fill-opacity="1"/><rect x="-37.5" width="450" fill="#ffffff" y="-15" height="179.999997" fill-opacity="1"/><g fill="#92278f" fill-opacity="1"><g transform="translate(16.537318, 119.741197)"><g><path d="M 4.890625 -28.90625 L 3.796875 -30.671875 L 3.9375 -43.84375 L 53.890625 -65.28125 L 55.65625 -64.203125 L 58.359375 -53.890625 C 52.566406 -51.710938 38.859375 -46.238281 17.234375 -37.46875 L 17.234375 -36.515625 L 57.953125 -18.59375 L 58.5 -16.5625 L 52.796875 -7.734375 C 34.972656 -15.785156 19.003906 -22.84375 4.890625 -28.90625 Z M 4.890625 -28.90625 "/></g></g></g><g fill="#92278f" fill-opacity="1"><g transform="translate(80.329316, 119.741197)"><g><path d="M 0 -87.40625 C 7.507812 -87.226562 12.984375 -87.140625 16.421875 -87.140625 C 22.847656 -87.140625 30.765625 -87.503906 40.171875 -88.234375 L 40.984375 -87.140625 L 40.3125 -78.859375 C 35.789062 -78.492188 32.914062 -77.992188 31.6875 -77.359375 C 30.46875 -76.734375 29.859375 -75.601562 29.859375 -73.96875 C 29.859375 -71.257812 33.976562 -52.53125 42.21875 -17.78125 L 44.25 -17.78125 C 46.332031 -23.125 49.703125 -33.375 54.359375 -48.53125 C 59.023438 -63.6875 61.359375 -72.144531 61.359375 -73.90625 C 61.359375 -75.664062 60.835938 -76.863281 59.796875 -77.5 C 58.753906 -78.132812 56.960938 -78.453125 54.421875 -78.453125 L 49.140625 -78.453125 L 48.453125 -79.40625 L 49.40625 -87.8125 C 57.007812 -87.363281 63.707031 -87.140625 69.5 -87.140625 L 85.234375 -87.40625 L 84.296875 -78.453125 C 82.117188 -78.085938 80.578125 -77.472656 79.671875 -76.609375 C 78.765625 -75.753906 77.863281 -74.015625 76.96875 -71.390625 L 51.984375 -0.671875 L 29.59375 2.03125 C 21.539062 -29 14.929688 -52.976562 9.765625 -69.90625 C 8.953125 -72.707031 7.753906 -74.765625 6.171875 -76.078125 C 4.585938 -77.390625 2.394531 -78.132812 -0.40625 -78.3125 L -0.953125 -79.265625 Z M 0 -87.40625 "/></g></g></g><g fill="#92278f" fill-opacity="1"><g transform="translate(165.159106, 119.741197)"><g><path d="M 85.109375 0.40625 C 77.953125 0.132812 72.519531 0 68.8125 0 C 61.570312 0 53.789062 0.359375 45.46875 1.078125 L 44.65625 0 L 45.328125 -8.140625 C 49.765625 -8.503906 52.613281 -9.003906 53.875 -9.640625 C 55.144531 -10.273438 55.78125 -11.25 55.78125 -12.5625 C 55.78125 -13.875 55.554688 -15.566406 55.109375 -17.640625 L 52.390625 -27.96875 C 50.035156 -28.050781 46.503906 -28.09375 41.796875 -28.09375 C 37.097656 -28.09375 32.210938 -27.773438 27.140625 -27.140625 L 23.75 -16.96875 C 23.207031 -15.0625 22.9375 -13.5 22.9375 -12.28125 C 22.9375 -11.0625 23.390625 -10.15625 24.296875 -9.5625 C 25.203125 -8.976562 26.832031 -8.6875 29.1875 -8.6875 L 35.015625 -8.6875 L 35.5625 -7.734375 L 34.609375 0.8125 C 27.191406 0.269531 20.585938 0 14.796875 0 L -1.625 0.40625 L -0.546875 -8.6875 C 1.628906 -9.050781 3.375 -9.890625 4.6875 -11.203125 C 6 -12.515625 7.195312 -14.660156 8.28125 -17.640625 L 32.4375 -86.46875 L 54.015625 -88.640625 L 55.515625 -87.953125 C 63.660156 -56.554688 70.128906 -33.210938 74.921875 -17.921875 C 75.921875 -14.660156 77.1875 -12.347656 78.71875 -10.984375 C 80.257812 -9.628906 82.523438 -8.816406 85.515625 -8.546875 L 86.0625 -7.59375 Z M 39.90625 -38.8125 C 42.800781 -38.8125 46.148438 -38.992188 49.953125 -39.359375 L 42.078125 -69.21875 L 40.171875 -69.21875 L 30.40625 -38.8125 Z M 39.90625 -38.8125 "/></g></g></g><g fill="#92278f" fill-opacity="1"><g transform="translate(249.988896, 119.741197)"><g><path d="M 41.53125 -91.625 L 43.296875 -89.578125 C 36.148438 -63.972656 30.628906 -43.84375 26.734375 -29.1875 L 15.46875 14.9375 L 3.9375 14.9375 L 2.71875 13.4375 C 7.332031 -2.21875 11.40625 -16.921875 14.9375 -30.671875 L 30.546875 -91.625 Z M 41.53125 -91.625 "/></g></g></g><g fill="#92278f" fill-opacity="1"><g transform="translate(294.643295, 119.741197)"><g><path d="M 58.90625 -44.109375 L 60 -42.34375 L 59.859375 -29.046875 L 9.90625 -7.734375 L 8.140625 -8.6875 L 5.421875 -19.140625 C 11.941406 -21.492188 25.65625 -26.921875 46.5625 -35.421875 L 46.5625 -36.375 L 5.84375 -54.296875 L 5.296875 -56.46875 L 11 -65.28125 C 18.863281 -61.664062 26.28125 -58.273438 33.25 -55.109375 Z M 58.90625 -44.109375 "/></g></g></g></svg>