<svg xmlns="http://www.w3.org/2000/svg" xmlns:xlink="http://www.w3.org/1999/xlink" width="500" zoomAndPan="magnify" viewBox="0 0 375 112.499997" height="150" preserveAspectRatio="xMidYMid meet" version="1.0"><defs><g/><clipPath id="id1"><path d="M 0.828125 0 L 374.167969 0 L 374.167969 112.003906 L 0.828125 112.003906 Z M 0.828125 0 " clip-rule="nonzero"/></clipPath></defs><g clip-path="url(#id1)"><path fill="#ffffff" d="M 0.828125 0 L 374.171875 0 L 374.171875 119.46875 L 0.828125 119.46875 Z M 0.828125 0 " fill-opacity="1" fill-rule="nonzero"/><path fill="#ffffff" d="M 0.828125 0 L 374.171875 0 L 374.171875 112.003906 L 0.828125 112.003906 Z M 0.828125 0 " fill-opacity="1" fill-rule="nonzero"/><path fill="#ffffff" d="M 0.828125 0 L 374.171875 0 L 374.171875 112.003906 L 0.828125 112.003906 Z M 0.828125 0 " fill-opacity="1" fill-rule="nonzero"/><path fill="#ffffff" d="M 0.828125 0 L 374.171875 0 L 374.171875 112.003906 L 0.828125 112.003906 Z M 0.828125 0 " fill-opacity="1" fill-rule="nonzero"/></g><g fill="#92278f" fill-opacity="1"><g transform="translate(108.801763, 55.116836)"><g><path d="M 1.3125 -7.734375 L 1.015625 -8.203125 L 1.046875 -11.71875 L 14.40625 -17.453125 L 14.875 -17.15625 L 15.59375 -14.40625 C 14.050781 -13.820312 10.390625 -12.359375 4.609375 -10.015625 L 4.609375 -9.765625 L 15.484375 -4.96875 L 15.640625 -4.421875 L 14.109375 -2.0625 C 9.347656 -4.21875 5.082031 -6.109375 1.3125 -7.734375 Z M 1.3125 -7.734375 "/></g></g></g><g fill="#92278f" fill-opacity="1"><g transform="translate(134.228929, 55.116836)"><g><path d="M 11.53125 0.4375 C 9.257812 0.144531 7.640625 0 6.671875 0 C 5.128906 0 3.363281 0.117188 1.375 0.359375 L 1.625 -2.109375 C 2.664062 -2.296875 3.363281 -2.601562 3.71875 -3.03125 C 4.070312 -3.457031 4.25 -4.175781 4.25 -5.1875 L 4.28125 -18.9375 C 4.28125 -19.707031 4.203125 -20.222656 4.046875 -20.484375 C 3.890625 -20.753906 3.582031 -20.890625 3.125 -20.890625 L 1.921875 -20.828125 L 1.703125 -21.15625 L 2 -23.40625 C 4.144531 -23.332031 5.691406 -23.296875 6.640625 -23.296875 L 12.40625 -23.46875 C 16.082031 -23.46875 18.953125 -22.503906 21.015625 -20.578125 C 23.085938 -18.660156 24.125 -15.894531 24.125 -12.28125 C 24.125 -8.664062 22.953125 -5.640625 20.609375 -3.203125 C 18.265625 -0.773438 15.238281 0.4375 11.53125 0.4375 Z M 10.484375 -20.3125 C 10.097656 -20.3125 9.832031 -20.25 9.6875 -20.125 C 9.539062 -20.007812 9.457031 -19.785156 9.4375 -19.453125 C 9.125 -12.847656 8.96875 -8.128906 8.96875 -5.296875 C 8.96875 -4.253906 9.164062 -3.5625 9.5625 -3.21875 C 9.957031 -2.882812 10.757812 -2.71875 11.96875 -2.71875 C 16.28125 -2.71875 18.4375 -5.632812 18.4375 -11.46875 C 18.4375 -14.539062 17.785156 -16.78125 16.484375 -18.1875 C 15.191406 -19.601562 13.191406 -20.3125 10.484375 -20.3125 Z M 10.484375 -20.3125 "/></g></g></g><g fill="#92278f" fill-opacity="1"><g transform="translate(167.744234, 55.116836)"><g><path d="M 9.171875 -13.421875 L 12.546875 -13.390625 L 16.765625 -13.671875 L 17.046875 -13.34375 L 16.546875 -10.234375 C 14.609375 -10.304688 13.1875 -10.34375 12.28125 -10.34375 C 11.375 -10.34375 10.304688 -10.269531 9.078125 -10.125 C 9.003906 -7.488281 8.96875 -5.738281 8.96875 -4.875 C 8.96875 -4.019531 9.09375 -3.46875 9.34375 -3.21875 C 9.59375 -2.976562 10.273438 -2.859375 11.390625 -2.859375 C 12.503906 -2.859375 13.375 -2.898438 14 -2.984375 C 14.632812 -3.078125 15.164062 -3.28125 15.59375 -3.59375 C 16.03125 -3.90625 16.328125 -4.304688 16.484375 -4.796875 C 16.640625 -5.296875 16.789062 -6.03125 16.9375 -7 L 20.03125 -7.25 L 20.28125 -6.890625 C 19.84375 -4.710938 19.503906 -2.460938 19.265625 -0.140625 L 18.9375 0.25 C 14.394531 0.0820312 11.128906 0 9.140625 0 C 6.191406 0 3.582031 0.117188 1.3125 0.359375 L 1.59375 -2.109375 C 2.582031 -2.253906 3.265625 -2.550781 3.640625 -3 C 4.015625 -3.445312 4.203125 -4.1875 4.203125 -5.21875 L 4.25 -18.96875 C 4.25 -19.769531 4.164062 -20.296875 4 -20.546875 C 3.84375 -20.804688 3.523438 -20.9375 3.046875 -20.9375 L 1.953125 -20.859375 L 1.703125 -21.1875 L 2 -23.40625 C 4.65625 -23.332031 7.722656 -23.296875 11.203125 -23.296875 C 14.691406 -23.296875 17.535156 -23.441406 19.734375 -23.734375 L 20.03125 -23.328125 C 19.59375 -21.171875 19.3125 -18.96875 19.1875 -16.71875 L 15.859375 -16.515625 C 15.898438 -17.140625 15.921875 -17.617188 15.921875 -17.953125 C 15.921875 -18.953125 15.664062 -19.582031 15.15625 -19.84375 C 14.65625 -20.113281 13.6875 -20.25 12.25 -20.25 C 10.8125 -20.25 9.988281 -20.179688 9.78125 -20.046875 C 9.570312 -19.910156 9.457031 -19.578125 9.4375 -19.046875 Z M 9.171875 -13.421875 "/></g></g></g><g fill="#92278f" fill-opacity="1"><g transform="translate(197.777655, 55.116836)"><g><path d="M 0 -23.359375 C 2.007812 -23.316406 3.472656 -23.296875 4.390625 -23.296875 C 6.109375 -23.296875 8.222656 -23.390625 10.734375 -23.578125 L 10.953125 -23.296875 L 10.78125 -21.078125 C 9.570312 -20.984375 8.800781 -20.847656 8.46875 -20.671875 C 8.144531 -20.503906 7.984375 -20.203125 7.984375 -19.765625 C 7.984375 -19.046875 9.082031 -14.039062 11.28125 -4.75 L 11.828125 -4.75 C 12.378906 -6.175781 13.28125 -8.914062 14.53125 -12.96875 C 15.78125 -17.019531 16.40625 -19.28125 16.40625 -19.75 C 16.40625 -20.226562 16.265625 -20.550781 15.984375 -20.71875 C 15.703125 -20.882812 15.222656 -20.96875 14.546875 -20.96875 L 13.140625 -20.96875 L 12.953125 -21.21875 L 13.203125 -23.46875 C 15.234375 -23.351562 17.023438 -23.296875 18.578125 -23.296875 L 22.78125 -23.359375 L 22.53125 -20.96875 C 21.945312 -20.875 21.535156 -20.710938 21.296875 -20.484375 C 21.054688 -20.253906 20.816406 -19.785156 20.578125 -19.078125 L 13.890625 -0.1875 L 7.90625 0.546875 C 5.757812 -7.753906 3.992188 -14.164062 2.609375 -18.6875 C 2.390625 -19.4375 2.066406 -19.984375 1.640625 -20.328125 C 1.222656 -20.679688 0.640625 -20.882812 -0.109375 -20.9375 L -0.25 -21.1875 Z M 0 -23.359375 "/></g></g></g><g fill="#92278f" fill-opacity="1"><g transform="translate(228.826622, 55.116836)"><g><path d="M 11.109375 -24.484375 L 11.578125 -23.953125 C 9.660156 -17.097656 8.179688 -11.710938 7.140625 -7.796875 L 4.140625 3.984375 L 1.046875 3.984375 L 0.71875 3.59375 C 1.957031 -0.59375 3.046875 -4.523438 3.984375 -8.203125 L 8.15625 -24.484375 Z M 11.109375 -24.484375 "/></g></g></g><g fill="#92278f" fill-opacity="1"><g transform="translate(249.139748, 55.116836)"><g><path d="M 15.75 -11.796875 L 16.03125 -11.3125 L 16 -7.765625 L 2.65625 -2.0625 L 2.171875 -2.328125 L 1.453125 -5.109375 C 3.191406 -5.742188 6.851562 -7.195312 12.4375 -9.46875 L 12.4375 -9.71875 L 1.5625 -14.515625 L 1.421875 -15.09375 L 2.9375 -17.453125 C 5.039062 -16.484375 7.023438 -15.578125 8.890625 -14.734375 Z M 15.75 -11.796875 "/></g></g></g><path stroke-linecap="round" transform="matrix(-2.242058, -0.000000000000000275, 0.000000000000000259, -2.116056, 348.27831, 88.704128)" fill="none" stroke-linejoin="miter" d="M 0.50046 0.000474138 L 144.37291 0.000474138 " stroke="#92278f" stroke-width="1" stroke-opacity="1" stroke-miterlimit="4"/><path stroke-linecap="round" transform="matrix(0.000000000000000137, -2.239489, 2.116056, 0.00000000000000013, 347.58521, 89.605869)" fill="none" stroke-linejoin="miter" d="M 0.500781 0.00034373 L 20.51093 0.00034373 " stroke="#92278f" stroke-width="1" stroke-opacity="1" stroke-miterlimit="4"/><path stroke-linecap="round" transform="matrix(0.000000000000000137, -2.23261, 2.116056, 0.00000000000000013, 23.985974, 89.610165)" fill="none" stroke-linejoin="miter" d="M 0.500749 -0.000755789 L 19.902442 -0.000755789 " stroke="#92278f" stroke-width="1" stroke-opacity="1" stroke-miterlimit="4"/><path stroke-linecap="round" transform="matrix(2.234352, 0, 0, 2.116056, 279.41119, 43.444251)" fill="none" stroke-linejoin="miter" d="M 0.499543 0.00050148 L 30.246353 0.00050148 " stroke="#92278f" stroke-width="1" stroke-opacity="1" stroke-miterlimit="4"/><path stroke-linecap="round" transform="matrix(2.244474, 0, 0, 2.116056, 23.763603, 44.811579)" fill="none" stroke-linejoin="miter" d="M 0.500391 0.000435229 L 31.10681 0.000435229 " stroke="#92278f" stroke-width="1" stroke-opacity="1" stroke-miterlimit="4"/><g fill="#92278f" fill-opacity="1"><g transform="translate(31.053481, 80.888376)"><g><path d="M 0 -13.78125 C 1.1875 -13.75 2.050781 -13.734375 2.59375 -13.734375 C 3.601562 -13.734375 4.847656 -13.789062 6.328125 -13.90625 L 6.453125 -13.734375 L 6.359375 -12.421875 C 5.640625 -12.367188 5.179688 -12.289062 4.984375 -12.1875 C 4.796875 -12.09375 4.703125 -11.914062 4.703125 -11.65625 C 4.703125 -11.226562 5.351562 -8.273438 6.65625 -2.796875 L 6.96875 -2.796875 C 7.300781 -3.640625 7.832031 -5.253906 8.5625 -7.640625 C 9.300781 -10.035156 9.671875 -11.367188 9.671875 -11.640625 C 9.671875 -11.921875 9.585938 -12.109375 9.421875 -12.203125 C 9.253906 -12.304688 8.972656 -12.359375 8.578125 -12.359375 L 7.75 -12.359375 L 7.640625 -12.515625 L 7.78125 -13.84375 C 8.976562 -13.769531 10.035156 -13.734375 10.953125 -13.734375 L 13.4375 -13.78125 L 13.28125 -12.359375 C 12.9375 -12.304688 12.691406 -12.210938 12.546875 -12.078125 C 12.410156 -11.941406 12.269531 -11.664062 12.125 -11.25 L 8.1875 -0.109375 L 4.65625 0.328125 C 3.394531 -4.566406 2.359375 -8.347656 1.546875 -11.015625 C 1.410156 -11.453125 1.21875 -11.773438 0.96875 -11.984375 C 0.71875 -12.191406 0.375 -12.3125 -0.0625 -12.34375 L -0.15625 -12.484375 Z M 0 -13.78125 "/></g></g></g><g fill="#92278f" fill-opacity="1"><g transform="translate(53.776897, 80.888376)"><g><path d="M 13.40625 0.0625 C 12.28125 0.0195312 11.425781 0 10.84375 0 C 9.707031 0 8.484375 0.0546875 7.171875 0.171875 L 7.03125 0 L 7.140625 -1.28125 C 7.835938 -1.34375 8.285156 -1.421875 8.484375 -1.515625 C 8.691406 -1.617188 8.796875 -1.769531 8.796875 -1.96875 C 8.796875 -2.175781 8.757812 -2.445312 8.6875 -2.78125 L 8.25 -4.40625 C 7.882812 -4.414062 7.328125 -4.421875 6.578125 -4.421875 C 5.835938 -4.421875 5.070312 -4.375 4.28125 -4.28125 L 3.75 -2.671875 C 3.65625 -2.367188 3.609375 -2.117188 3.609375 -1.921875 C 3.609375 -1.734375 3.679688 -1.59375 3.828125 -1.5 C 3.972656 -1.414062 4.226562 -1.375 4.59375 -1.375 L 5.515625 -1.375 L 5.609375 -1.21875 L 5.453125 0.125 C 4.285156 0.0390625 3.242188 0 2.328125 0 L -0.25 0.0625 L -0.078125 -1.375 C 0.253906 -1.425781 0.523438 -1.554688 0.734375 -1.765625 C 0.941406 -1.972656 1.132812 -2.3125 1.3125 -2.78125 L 5.109375 -13.625 L 8.515625 -13.96875 L 8.75 -13.859375 C 10.03125 -8.910156 11.050781 -5.234375 11.8125 -2.828125 C 11.96875 -2.304688 12.164062 -1.9375 12.40625 -1.71875 C 12.644531 -1.507812 13 -1.382812 13.46875 -1.34375 L 13.5625 -1.203125 Z M 6.28125 -6.125 C 6.738281 -6.125 7.269531 -6.148438 7.875 -6.203125 L 6.625 -10.90625 L 6.328125 -10.90625 L 4.796875 -6.125 Z M 6.28125 -6.125 "/></g></g></g><g fill="#92278f" fill-opacity="1"><g transform="translate(76.500312, 80.888376)"><g><path d="M 1.109375 -13.75 L 4.015625 -13.734375 L 7.34375 -13.875 L 7.171875 -12.359375 C 6.472656 -12.273438 6.03125 -12.140625 5.84375 -11.953125 C 5.664062 -11.765625 5.566406 -11.378906 5.546875 -10.796875 C 5.390625 -8.671875 5.3125 -6.0625 5.3125 -2.96875 C 5.3125 -2.425781 5.390625 -2.078125 5.546875 -1.921875 C 5.710938 -1.765625 6.070312 -1.6875 6.625 -1.6875 C 7.644531 -1.6875 8.320312 -1.878906 8.65625 -2.265625 C 8.988281 -2.660156 9.226562 -3.550781 9.375 -4.9375 L 11.1875 -5.140625 L 11.34375 -4.921875 C 11.09375 -3.367188 10.898438 -1.75 10.765625 -0.0625 L 10.5625 0.171875 C 8.238281 0.0546875 6.515625 0 5.390625 0 C 3.703125 0 2.203125 0.0703125 0.890625 0.21875 L 1.046875 -1.234375 C 1.585938 -1.328125 1.960938 -1.503906 2.171875 -1.765625 C 2.378906 -2.023438 2.484375 -2.460938 2.484375 -3.078125 L 2.484375 -11.234375 C 2.484375 -11.671875 2.429688 -11.960938 2.328125 -12.109375 C 2.234375 -12.265625 2.03125 -12.34375 1.71875 -12.34375 L 1.0625 -12.328125 L 0.96875 -12.484375 Z M 1.109375 -13.75 "/></g></g></g><g fill="#92278f" fill-opacity="1"><g transform="translate(97.212814, 80.888376)"><g><path d="M 5.40625 -7.921875 L 7.40625 -7.890625 L 9.875 -8.0625 L 10.046875 -7.875 L 9.75 -6.03125 C 8.613281 -6.070312 7.773438 -6.09375 7.234375 -6.09375 C 6.703125 -6.09375 6.070312 -6.050781 5.34375 -5.96875 C 5.300781 -4.414062 5.28125 -3.382812 5.28125 -2.875 C 5.28125 -2.375 5.351562 -2.050781 5.5 -1.90625 C 5.65625 -1.757812 6.0625 -1.6875 6.71875 -1.6875 C 7.375 -1.6875 7.882812 -1.710938 8.25 -1.765625 C 8.625 -1.816406 8.9375 -1.929688 9.1875 -2.109375 C 9.445312 -2.296875 9.625 -2.535156 9.71875 -2.828125 C 9.8125 -3.117188 9.898438 -3.550781 9.984375 -4.125 L 11.8125 -4.28125 L 11.953125 -4.0625 C 11.703125 -2.78125 11.503906 -1.453125 11.359375 -0.078125 L 11.171875 0.15625 C 8.484375 0.0507812 6.554688 0 5.390625 0 C 3.648438 0 2.109375 0.0703125 0.765625 0.21875 L 0.9375 -1.234375 C 1.519531 -1.328125 1.921875 -1.503906 2.140625 -1.765625 C 2.367188 -2.023438 2.484375 -2.460938 2.484375 -3.078125 L 2.5 -11.1875 C 2.5 -11.65625 2.453125 -11.960938 2.359375 -12.109375 C 2.265625 -12.265625 2.078125 -12.34375 1.796875 -12.34375 L 1.15625 -12.296875 L 1 -12.484375 L 1.171875 -13.796875 C 2.742188 -13.753906 4.554688 -13.734375 6.609375 -13.734375 C 8.660156 -13.734375 10.335938 -13.816406 11.640625 -13.984375 L 11.8125 -13.75 C 11.550781 -12.476562 11.382812 -11.179688 11.3125 -9.859375 L 9.34375 -9.734375 C 9.375 -10.097656 9.390625 -10.382812 9.390625 -10.59375 C 9.390625 -11.175781 9.238281 -11.546875 8.9375 -11.703125 C 8.632812 -11.859375 8.0625 -11.9375 7.21875 -11.9375 C 6.375 -11.9375 5.890625 -11.894531 5.765625 -11.8125 C 5.640625 -11.738281 5.570312 -11.546875 5.5625 -11.234375 Z M 5.40625 -7.921875 "/></g></g></g><g fill="#92278f" fill-opacity="1"><g transform="translate(119.337238, 80.888376)"><g><path d="M 12.171875 -10.15625 C 12.171875 -8.4375 11.21875 -7.078125 9.3125 -6.078125 L 11.171875 -3.078125 C 11.566406 -2.421875 11.945312 -1.945312 12.3125 -1.65625 C 12.6875 -1.363281 13.097656 -1.21875 13.546875 -1.21875 L 13.6875 -1.03125 L 13.546875 0.109375 L 11 0.34375 C 10.050781 0.34375 9.269531 -0.316406 8.65625 -1.640625 L 6.828125 -5.375 L 5.328125 -5.375 L 5.3125 -3.015625 C 5.3125 -2.304688 5.390625 -1.859375 5.546875 -1.671875 C 5.710938 -1.484375 6.140625 -1.382812 6.828125 -1.375 L 6.90625 -1.234375 L 6.6875 0.078125 C 6.6875 0.0351562 5.734375 0.015625 3.828125 0.015625 L 0.765625 0.125 L 0.96875 -1.3125 C 1.5625 -1.394531 1.960938 -1.550781 2.171875 -1.78125 C 2.378906 -2.019531 2.484375 -2.445312 2.484375 -3.0625 L 2.5 -11.296875 C 2.5 -11.710938 2.453125 -11.988281 2.359375 -12.125 C 2.265625 -12.269531 2.082031 -12.34375 1.8125 -12.34375 L 1.0625 -12.296875 L 0.96875 -12.46875 L 1.140625 -13.78125 C 2.378906 -13.75 3.273438 -13.734375 3.828125 -13.734375 L 7.109375 -13.84375 C 8.742188 -13.84375 9.992188 -13.523438 10.859375 -12.890625 C 11.734375 -12.253906 12.171875 -11.34375 12.171875 -10.15625 Z M 9.140625 -9.75 C 9.140625 -11.289062 8.078125 -12.0625 5.953125 -12.0625 C 5.804688 -12.0625 5.703125 -12.035156 5.640625 -11.984375 C 5.523438 -11.847656 5.441406 -10.285156 5.390625 -7.296875 L 7.3125 -7.078125 C 8.53125 -7.585938 9.140625 -8.476562 9.140625 -9.75 Z M 9.140625 -9.75 "/></g></g></g><g fill="#92278f" fill-opacity="1"><g transform="translate(142.445721, 80.888376)"><g><path d="M 1.03125 -13.75 L 4.015625 -13.734375 L 7.0625 -13.875 L 6.9375 -12.453125 C 6.394531 -12.378906 6.035156 -12.265625 5.859375 -12.109375 C 5.691406 -11.960938 5.59375 -11.691406 5.5625 -11.296875 C 5.394531 -8.335938 5.3125 -5.519531 5.3125 -2.84375 C 5.3125 -2.257812 5.363281 -1.867188 5.46875 -1.671875 C 5.570312 -1.484375 5.789062 -1.390625 6.125 -1.390625 L 7.03125 -1.453125 L 7.140625 -1.3125 L 6.953125 0.0625 C 5.472656 0.0195312 4.484375 0 3.984375 0 C 2.992188 0 1.921875 0.0625 0.765625 0.1875 L 0.921875 -1.203125 C 1.546875 -1.328125 1.960938 -1.507812 2.171875 -1.75 C 2.378906 -2 2.484375 -2.414062 2.484375 -3 L 2.5 -11.234375 C 2.5 -11.671875 2.445312 -11.960938 2.34375 -12.109375 C 2.25 -12.265625 2.046875 -12.34375 1.734375 -12.34375 L 0.984375 -12.328125 L 0.875 -12.484375 Z M 1.03125 -13.75 "/></g></g></g><g fill="#92278f" fill-opacity="1"><g transform="translate(159.607014, 80.888376)"><g><path d="M 13.40625 0.0625 C 12.28125 0.0195312 11.425781 0 10.84375 0 C 9.707031 0 8.484375 0.0546875 7.171875 0.171875 L 7.03125 0 L 7.140625 -1.28125 C 7.835938 -1.34375 8.285156 -1.421875 8.484375 -1.515625 C 8.691406 -1.617188 8.796875 -1.769531 8.796875 -1.96875 C 8.796875 -2.175781 8.757812 -2.445312 8.6875 -2.78125 L 8.25 -4.40625 C 7.882812 -4.414062 7.328125 -4.421875 6.578125 -4.421875 C 5.835938 -4.421875 5.070312 -4.375 4.28125 -4.28125 L 3.75 -2.671875 C 3.65625 -2.367188 3.609375 -2.117188 3.609375 -1.921875 C 3.609375 -1.734375 3.679688 -1.59375 3.828125 -1.5 C 3.972656 -1.414062 4.226562 -1.375 4.59375 -1.375 L 5.515625 -1.375 L 5.609375 -1.21875 L 5.453125 0.125 C 4.285156 0.0390625 3.242188 0 2.328125 0 L -0.25 0.0625 L -0.078125 -1.375 C 0.253906 -1.425781 0.523438 -1.554688 0.734375 -1.765625 C 0.941406 -1.972656 1.132812 -2.3125 1.3125 -2.78125 L 5.109375 -13.625 L 8.515625 -13.96875 L 8.75 -13.859375 C 10.03125 -8.910156 11.050781 -5.234375 11.8125 -2.828125 C 11.96875 -2.304688 12.164062 -1.9375 12.40625 -1.71875 C 12.644531 -1.507812 13 -1.382812 13.46875 -1.34375 L 13.5625 -1.203125 Z M 6.28125 -6.125 C 6.738281 -6.125 7.269531 -6.148438 7.875 -6.203125 L 6.625 -10.90625 L 6.328125 -10.90625 L 4.796875 -6.125 Z M 6.28125 -6.125 "/></g></g></g><g fill="#92278f" fill-opacity="1"><g transform="translate(182.330434, 80.888376)"><g/></g></g><g fill="#92278f" fill-opacity="1"><g transform="translate(195.405711, 80.888376)"><g><path d="M 13.40625 0.0625 C 12.28125 0.0195312 11.425781 0 10.84375 0 C 9.707031 0 8.484375 0.0546875 7.171875 0.171875 L 7.03125 0 L 7.140625 -1.28125 C 7.835938 -1.34375 8.285156 -1.421875 8.484375 -1.515625 C 8.691406 -1.617188 8.796875 -1.769531 8.796875 -1.96875 C 8.796875 -2.175781 8.757812 -2.445312 8.6875 -2.78125 L 8.25 -4.40625 C 7.882812 -4.414062 7.328125 -4.421875 6.578125 -4.421875 C 5.835938 -4.421875 5.070312 -4.375 4.28125 -4.28125 L 3.75 -2.671875 C 3.65625 -2.367188 3.609375 -2.117188 3.609375 -1.921875 C 3.609375 -1.734375 3.679688 -1.59375 3.828125 -1.5 C 3.972656 -1.414062 4.226562 -1.375 4.59375 -1.375 L 5.515625 -1.375 L 5.609375 -1.21875 L 5.453125 0.125 C 4.285156 0.0390625 3.242188 0 2.328125 0 L -0.25 0.0625 L -0.078125 -1.375 C 0.253906 -1.425781 0.523438 -1.554688 0.734375 -1.765625 C 0.941406 -1.972656 1.132812 -2.3125 1.3125 -2.78125 L 5.109375 -13.625 L 8.515625 -13.96875 L 8.75 -13.859375 C 10.03125 -8.910156 11.050781 -5.234375 11.8125 -2.828125 C 11.96875 -2.304688 12.164062 -1.9375 12.40625 -1.71875 C 12.644531 -1.507812 13 -1.382812 13.46875 -1.34375 L 13.5625 -1.203125 Z M 6.28125 -6.125 C 6.738281 -6.125 7.269531 -6.148438 7.875 -6.203125 L 6.625 -10.90625 L 6.328125 -10.90625 L 4.796875 -6.125 Z M 6.28125 -6.125 "/></g></g></g><g fill="#92278f" fill-opacity="1"><g transform="translate(218.129131, 80.888376)"><g><path d="M 7.640625 -7.03125 L 10.609375 -7 C 12.066406 -7 12.796875 -7.035156 12.796875 -7.109375 L 12.9375 -6.265625 C 12.570312 -6.023438 12.332031 -5.679688 12.21875 -5.234375 C 12.113281 -4.796875 12.0625 -4.054688 12.0625 -3.015625 C 12.0625 -1.972656 12.113281 -1.257812 12.21875 -0.875 L 12.015625 -0.59375 C 11.421875 -0.351562 10.660156 -0.15625 9.734375 0 C 8.804688 0.164062 7.882812 0.25 6.96875 0.25 C 5 0.25 3.441406 -0.347656 2.296875 -1.546875 C 1.160156 -2.753906 0.59375 -4.460938 0.59375 -6.671875 C 0.59375 -8.878906 1.269531 -10.648438 2.625 -11.984375 C 3.976562 -13.316406 5.84375 -13.984375 8.21875 -13.984375 C 9.394531 -13.984375 10.804688 -13.804688 12.453125 -13.453125 L 12.59375 -13.171875 C 12.3125 -12.035156 12.128906 -10.722656 12.046875 -9.234375 L 9.921875 -9.109375 C 9.960938 -9.460938 9.984375 -9.894531 9.984375 -10.40625 C 9.984375 -10.914062 9.804688 -11.296875 9.453125 -11.546875 C 9.109375 -11.796875 8.523438 -11.921875 7.703125 -11.921875 C 6.421875 -11.921875 5.46875 -11.535156 4.84375 -10.765625 C 4.226562 -9.992188 3.921875 -8.769531 3.921875 -7.09375 C 3.921875 -5.425781 4.234375 -4.117188 4.859375 -3.171875 C 5.484375 -2.222656 6.367188 -1.75 7.515625 -1.75 C 7.878906 -1.75 8.234375 -1.796875 8.578125 -1.890625 C 8.921875 -1.984375 9.25 -2.125 9.5625 -2.3125 L 9.5625 -4.296875 C 9.5625 -4.710938 9.5 -4.988281 9.375 -5.125 C 9.257812 -5.257812 9.007812 -5.328125 8.625 -5.328125 L 7.53125 -5.328125 L 7.40625 -5.5 Z M 7.640625 -7.03125 "/></g></g></g><g fill="#92278f" fill-opacity="1"><g transform="translate(241.472928, 80.888376)"><g><path d="M 7.34375 -1.6875 C 9.082031 -1.6875 9.953125 -2.613281 9.953125 -4.46875 L 9.859375 -11.1875 C 9.847656 -11.65625 9.796875 -11.960938 9.703125 -12.109375 C 9.617188 -12.265625 9.441406 -12.34375 9.171875 -12.34375 L 8.46875 -12.296875 L 8.421875 -12.390625 L 8.59375 -13.796875 C 9.71875 -13.753906 10.554688 -13.734375 11.109375 -13.734375 L 13.640625 -13.859375 L 13.515625 -12.421875 C 12.992188 -12.304688 12.65625 -12.1875 12.5 -12.0625 C 12.351562 -11.9375 12.28125 -11.703125 12.28125 -11.359375 L 12.28125 -4.703125 C 12.28125 -3.085938 11.804688 -1.859375 10.859375 -1.015625 C 9.910156 -0.171875 8.546875 0.25 6.765625 0.25 C 3.453125 0.25 1.796875 -1.285156 1.796875 -4.359375 L 1.796875 -11.1875 C 1.796875 -11.65625 1.753906 -11.960938 1.671875 -12.109375 C 1.585938 -12.265625 1.398438 -12.34375 1.109375 -12.34375 L 0.421875 -12.296875 L 0.390625 -12.390625 L 0.578125 -13.796875 C 1.804688 -13.753906 2.828125 -13.734375 3.640625 -13.734375 L 6.1875 -13.859375 L 6.03125 -12.40625 C 5.59375 -12.351562 5.289062 -12.242188 5.125 -12.078125 C 4.957031 -11.921875 4.859375 -11.648438 4.828125 -11.265625 L 4.6875 -5.046875 C 4.6875 -3.972656 4.910156 -3.144531 5.359375 -2.5625 C 5.816406 -1.976562 6.476562 -1.6875 7.34375 -1.6875 Z M 7.34375 -1.6875 "/></g></g></g><g fill="#92278f" fill-opacity="1"><g transform="translate(264.838124, 80.888376)"><g><path d="M 1.03125 -13.75 L 4.015625 -13.734375 L 7.0625 -13.875 L 6.9375 -12.453125 C 6.394531 -12.378906 6.035156 -12.265625 5.859375 -12.109375 C 5.691406 -11.960938 5.59375 -11.691406 5.5625 -11.296875 C 5.394531 -8.335938 5.3125 -5.519531 5.3125 -2.84375 C 5.3125 -2.257812 5.363281 -1.867188 5.46875 -1.671875 C 5.570312 -1.484375 5.789062 -1.390625 6.125 -1.390625 L 7.03125 -1.453125 L 7.140625 -1.3125 L 6.953125 0.0625 C 5.472656 0.0195312 4.484375 0 3.984375 0 C 2.992188 0 1.921875 0.0625 0.765625 0.1875 L 0.921875 -1.203125 C 1.546875 -1.328125 1.960938 -1.507812 2.171875 -1.75 C 2.378906 -2 2.484375 -2.414062 2.484375 -3 L 2.5 -11.234375 C 2.5 -11.671875 2.445312 -11.960938 2.34375 -12.109375 C 2.25 -12.265625 2.046875 -12.34375 1.734375 -12.34375 L 0.984375 -12.328125 L 0.875 -12.484375 Z M 1.03125 -13.75 "/></g></g></g><g fill="#92278f" fill-opacity="1"><g transform="translate(281.999405, 80.888376)"><g><path d="M 12.171875 -10.15625 C 12.171875 -8.4375 11.21875 -7.078125 9.3125 -6.078125 L 11.171875 -3.078125 C 11.566406 -2.421875 11.945312 -1.945312 12.3125 -1.65625 C 12.6875 -1.363281 13.097656 -1.21875 13.546875 -1.21875 L 13.6875 -1.03125 L 13.546875 0.109375 L 11 0.34375 C 10.050781 0.34375 9.269531 -0.316406 8.65625 -1.640625 L 6.828125 -5.375 L 5.328125 -5.375 L 5.3125 -3.015625 C 5.3125 -2.304688 5.390625 -1.859375 5.546875 -1.671875 C 5.710938 -1.484375 6.140625 -1.382812 6.828125 -1.375 L 6.90625 -1.234375 L 6.6875 0.078125 C 6.6875 0.0351562 5.734375 0.015625 3.828125 0.015625 L 0.765625 0.125 L 0.96875 -1.3125 C 1.5625 -1.394531 1.960938 -1.550781 2.171875 -1.78125 C 2.378906 -2.019531 2.484375 -2.445312 2.484375 -3.0625 L 2.5 -11.296875 C 2.5 -11.710938 2.453125 -11.988281 2.359375 -12.125 C 2.265625 -12.269531 2.082031 -12.34375 1.8125 -12.34375 L 1.0625 -12.296875 L 0.96875 -12.46875 L 1.140625 -13.78125 C 2.378906 -13.75 3.273438 -13.734375 3.828125 -13.734375 L 7.109375 -13.84375 C 8.742188 -13.84375 9.992188 -13.523438 10.859375 -12.890625 C 11.734375 -12.253906 12.171875 -11.34375 12.171875 -10.15625 Z M 9.140625 -9.75 C 9.140625 -11.289062 8.078125 -12.0625 5.953125 -12.0625 C 5.804688 -12.0625 5.703125 -12.035156 5.640625 -11.984375 C 5.523438 -11.847656 5.441406 -10.285156 5.390625 -7.296875 L 7.3125 -7.078125 C 8.53125 -7.585938 9.140625 -8.476562 9.140625 -9.75 Z M 9.140625 -9.75 "/></g></g></g><g fill="#92278f" fill-opacity="1"><g transform="translate(305.107881, 80.888376)"><g><path d="M 12.171875 -10.15625 C 12.171875 -8.4375 11.21875 -7.078125 9.3125 -6.078125 L 11.171875 -3.078125 C 11.566406 -2.421875 11.945312 -1.945312 12.3125 -1.65625 C 12.6875 -1.363281 13.097656 -1.21875 13.546875 -1.21875 L 13.6875 -1.03125 L 13.546875 0.109375 L 11 0.34375 C 10.050781 0.34375 9.269531 -0.316406 8.65625 -1.640625 L 6.828125 -5.375 L 5.328125 -5.375 L 5.3125 -3.015625 C 5.3125 -2.304688 5.390625 -1.859375 5.546875 -1.671875 C 5.710938 -1.484375 6.140625 -1.382812 6.828125 -1.375 L 6.90625 -1.234375 L 6.6875 0.078125 C 6.6875 0.0351562 5.734375 0.015625 3.828125 0.015625 L 0.765625 0.125 L 0.96875 -1.3125 C 1.5625 -1.394531 1.960938 -1.550781 2.171875 -1.78125 C 2.378906 -2.019531 2.484375 -2.445312 2.484375 -3.0625 L 2.5 -11.296875 C 2.5 -11.710938 2.453125 -11.988281 2.359375 -12.125 C 2.265625 -12.269531 2.082031 -12.34375 1.8125 -12.34375 L 1.0625 -12.296875 L 0.96875 -12.46875 L 1.140625 -13.78125 C 2.378906 -13.75 3.273438 -13.734375 3.828125 -13.734375 L 7.109375 -13.84375 C 8.742188 -13.84375 9.992188 -13.523438 10.859375 -12.890625 C 11.734375 -12.253906 12.171875 -11.34375 12.171875 -10.15625 Z M 9.140625 -9.75 C 9.140625 -11.289062 8.078125 -12.0625 5.953125 -12.0625 C 5.804688 -12.0625 5.703125 -12.035156 5.640625 -11.984375 C 5.523438 -11.847656 5.441406 -10.285156 5.390625 -7.296875 L 7.3125 -7.078125 C 8.53125 -7.585938 9.140625 -8.476562 9.140625 -9.75 Z M 9.140625 -9.75 "/></g></g></g><g fill="#92278f" fill-opacity="1"><g transform="translate(328.216357, 80.888376)"><g><path d="M 5.40625 -7.921875 L 7.40625 -7.890625 L 9.875 -8.0625 L 10.046875 -7.875 L 9.75 -6.03125 C 8.613281 -6.070312 7.773438 -6.09375 7.234375 -6.09375 C 6.703125 -6.09375 6.070312 -6.050781 5.34375 -5.96875 C 5.300781 -4.414062 5.28125 -3.382812 5.28125 -2.875 C 5.28125 -2.375 5.351562 -2.050781 5.5 -1.90625 C 5.65625 -1.757812 6.0625 -1.6875 6.71875 -1.6875 C 7.375 -1.6875 7.882812 -1.710938 8.25 -1.765625 C 8.625 -1.816406 8.9375 -1.929688 9.1875 -2.109375 C 9.445312 -2.296875 9.625 -2.535156 9.71875 -2.828125 C 9.8125 -3.117188 9.898438 -3.550781 9.984375 -4.125 L 11.8125 -4.28125 L 11.953125 -4.0625 C 11.703125 -2.78125 11.503906 -1.453125 11.359375 -0.078125 L 11.171875 0.15625 C 8.484375 0.0507812 6.554688 0 5.390625 0 C 3.648438 0 2.109375 0.0703125 0.765625 0.21875 L 0.9375 -1.234375 C 1.519531 -1.328125 1.921875 -1.503906 2.140625 -1.765625 C 2.367188 -2.023438 2.484375 -2.460938 2.484375 -3.078125 L 2.5 -11.1875 C 2.5 -11.65625 2.453125 -11.960938 2.359375 -12.109375 C 2.265625 -12.265625 2.078125 -12.34375 1.796875 -12.34375 L 1.15625 -12.296875 L 1 -12.484375 L 1.171875 -13.796875 C 2.742188 -13.753906 4.554688 -13.734375 6.609375 -13.734375 C 8.660156 -13.734375 10.335938 -13.816406 11.640625 -13.984375 L 11.8125 -13.75 C 11.550781 -12.476562 11.382812 -11.179688 11.3125 -9.859375 L 9.34375 -9.734375 C 9.375 -10.097656 9.390625 -10.382812 9.390625 -10.59375 C 9.390625 -11.175781 9.238281 -11.546875 8.9375 -11.703125 C 8.632812 -11.859375 8.0625 -11.9375 7.21875 -11.9375 C 6.375 -11.9375 5.890625 -11.894531 5.765625 -11.8125 C 5.640625 -11.738281 5.570312 -11.546875 5.5625 -11.234375 Z M 5.40625 -7.921875 "/></g></g></g></svg>